<svg width="60" height="54" viewBox="0 0 60 54" fill="none" xmlns="http://www.w3.org/2000/svg">
<g clip-path="url(#clip0)">
<mask id="mask0" mask-type="alpha" maskUnits="userSpaceOnUse" x="0" y="1" width="63" height="54">
<path d="M31.1294 1L0 54.8412H16.8353L23.6647 43.0882L30.6529 55H62.2588L31.1294 1Z" fill="white"/>
</mask>
<g mask="url(#mask0)">
<path fill-rule="evenodd" clip-rule="evenodd" d="M40.0472 40.5081H52.1364L46.0767 30.0125L40.0171 40.5081H40.0472ZM38.4404 39.6884L32.3807 29.1927H44.5002L38.4404 39.6884ZM25.208 42.0964H37.0502L37.0501 42.0965H37.0798L31.0204 52.5917L24.961 42.0965H25.2081L25.208 42.0964ZM45.968 52.4038L40.0171 42.0965H51.9189L45.968 52.4038ZM38.5487 43.1037L44.5002 53.412H32.5972L38.5487 43.1037ZM59.5553 53.412L53.4963 42.9175L47.4373 53.412H59.5553ZM16.1807 30.0138L22.2396 40.5081H22.21H10.1218L16.1807 30.0138ZM10.3383 42.0965L16.3977 52.5917L22.4571 42.0965H10.3383ZM14.8209 53.412L8.76139 42.9166L2.7019 53.412H14.8209ZM23.817 39.6871L29.876 29.1927H17.758L23.817 39.6871ZM31.1286 4.01758L37.2962 14.7002H24.961L31.1286 4.01758ZM38.6567 17.1087L32.5972 27.6041H44.7161L38.6567 17.1087ZM29.66 27.6041L23.6003 17.1083L17.5405 27.6041H29.66ZM31.1283 26.5968L37.0798 16.2886H25.1769L31.1283 26.5968Z" fill="white"/>
</g>
</g>
<defs>
<clipPath id="clip0">
<rect width="59.0605" height="53.5019" fill="white" transform="translate(0 0.249023)"/>
</clipPath>
</defs>
</svg>
