<?xml version="1.0" encoding="UTF-8"?>
<!-- Generator: Adobe Illustrator 19.0.0, SVG Export Plug-In . SVG Version: 6.00 Build 0)  -->
<svg version="1.1" id="Layer_1" xmlns="http://www.w3.org/2000/svg" xmlns:xlink="http://www.w3.org/1999/xlink" x="0px" y="0px" viewBox="-404 255.8 149.4 50.2" style="enable-background:new -404 255.8 149.4 50.2;" xml:space="preserve">
<style type="text/css">
	.st0{fill:#222222;}
	.st1{fill:#E8B275;}
</style>
<g>
	<g id="XMLID_244_">
		<path id="XMLID_245_" d="M-395.8,303.6l-1.9-4.5h-0.4l-1.9,4.5l-1.6-4.5h-1.2l2.5,6.9h0.3l2.1-4.8l2.1,4.8h0.3l2.5-6.9h-1.2    L-395.8,303.6z M-387,303h2.3v-1h-2.3v-2h3.3v-1h-4.4v6.9h4.6v-1h-3.5L-387,303L-387,303z M-376.3,299h-2.3v6.9h2.3    c2,0,3.5-1.5,3.5-3.5C-372.8,300.6-374.3,299-376.3,299z M-376.3,305h-1.1v-5h1.1c1.5,0,2.3,1.1,2.3,2.5    C-373.9,303.9-374.8,305-376.3,305z M-365.6,299h-2.3v6.9h2.3c2,0,3.5-1.5,3.5-3.5C-362.1,300.6-363.6,299-365.6,299z M-365.6,305    h-1.1v-5h1.1c1.5,0,2.3,1.1,2.3,2.5S-364.1,305-365.6,305z M-357.1,306h1.1v-6.9h-1.1V306z M-346.4,303.6l-4.4-4.6l0,0v7h1.1v-4.6    l4.4,4.6l0,0v-7h-1.1V303.6z M-336,303.5h1.2c-0.2,0.9-1,1.5-2,1.5c-1.2,0-2.3-1-2.3-2.5c0-1.4,1.1-2.4,2.3-2.4    c0.7,0,1.3,0.3,1.7,0.7l0.7-0.8c-0.5-0.6-1.3-1-2.4-1c-1.8,0-3.5,1.4-3.5,3.5s1.7,3.5,3.5,3.5s3.3-1.4,3.2-3.5h-2.4V303.5    L-336,303.5z M-319.4,299h-2.4v6.9h1.1v-2.5h1.3c1.6,0,2.5-0.9,2.5-2.2S-317.9,299-319.4,299z M-319.5,302.6h-1.2v-2.5h1.2    c0.9,0,1.4,0.4,1.4,1.3S-318.6,302.6-319.5,302.6z M-311,299h-1.1v6.9h4.2V305h-3.1L-311,299L-311,299z M-299.9,298.9l-3.3,7h1.2    l0.6-1.4h3l0.6,1.4h1.2L-299.9,298.9L-299.9,298.9z M-301,303.6l1.1-2.5l1.1,2.5H-301z M-287.3,303.6l-4.4-4.6l0,0v7h1.1v-4.6    l4.4,4.6l0,0v-7h-1.1V303.6z M-276.6,303.6l-4.4-4.6l0,0v7h1.1v-4.6l4.4,4.6l0,0v-7h-1.1V303.6z M-269.3,303h2.3v-1h-2.3v-2h3.3    v-1h-4.4v6.9h4.6v-1h-3.4L-269.3,303L-269.3,303z M-257.3,303.3c0.9-0.3,1.4-1.1,1.4-2c0-1.3-0.9-2.2-2.5-2.2h-2.4v6.9h1.1v-2.5    h1.3l1.7,2.5h1.2L-257.3,303.3z M-258.5,302.6h-1.2v-2.5h1.2c0.9,0,1.4,0.4,1.4,1.3S-257.6,302.6-258.5,302.6z"/>
	</g>
</g>
<g id="XMLID_2_">
	<g>
		<path class="st0" d="M-355.7,270.5c0-1.2-0.8-2.5-3.2-2.5c-2.6,0-5.3,1.9-7.2,5.7l0.9-5.3h-6.6l-0.1,0.9h2.6l-3.4,19.4h3.9    l1.5-8.3c1.2-6.8,4.3-10.6,6.4-10.6c1.7,0,0.6,2.9,3.1,2.9C-356.4,272.7-355.7,271.7-355.7,270.5z M-344.5,268    c-6.7,0-12.5,5.6-12.5,12.8c0,5.7,3.8,8.3,8.6,8.3c3.8,0,6.9-2.2,8.5-6.6l-0.8-0.3c-1.8,4.4-4.5,6-7.3,6c-3.4,0-4.9-2.1-4.9-6.8    c0-1.1,0.1-2.3,0.3-3.5c0.9,0.3,2.1,0.5,3.4,0.5c6.3,0,10.9-2.4,10.9-6.2C-338.3,269.5-340.9,268-344.5,268z M-349.2,277.6    c-1.1,0-2.2-0.1-3.3-0.5c1-4.4,3.5-8.4,7.8-8.4c2,0,2.9,1.1,2.9,2.8C-341.7,274-343.8,277.6-349.2,277.6z M-318.9,287.8    c-1.1,0-1.2-0.7-0.7-3.4l2.8-16h-3.9l-0.4,2.1c-0.9-1.5-2.7-2.6-5.4-2.6c-5.8,0-11.6,5.6-11.6,13.2c0,5.1,3.2,7.9,7.3,7.9    c3.1,0,5.6-1.8,7.4-5.6l-0.1,0.5c-0.6,3.5,1,5.1,3.2,5.1c1.6,0,3.2-0.7,4.8-3.4l-0.7-0.2C-317.2,287.1-318.1,287.8-318.9,287.8z     M-322.2,276.4c-1.3,7.3-4.3,11.7-7.7,11.7c-2.5,0-4.2-1.9-4.2-6.1c0-7.3,3.8-13,8.1-13c2.1,0,3.7,1.1,4.6,3L-322.2,276.4z     M-281.5,287.8c-1,0-1.3-0.7-0.7-3.4l1.9-8.6c1.1-4.8-0.5-7.8-4.8-7.8c-3.5,0-6.6,2.1-8.6,5.9c0.3-3.7-1.4-5.9-5.1-5.9    c-3.5,0-6.7,2.1-8.7,6.1l1-5.6h-6.6l-0.1,0.9h2.7l-3.5,19.3h4l1.5-8.8c1.2-6.8,5.3-10.8,8.8-10.8c2.4,0,2.8,1.6,1.9,5.8l-2.7,13.9    h3.9l1.8-8.8c1.2-6.8,5.4-10.8,8.9-10.8c2.4,0,2.8,1.6,1.9,5.8l-2.1,9.2c-0.8,3.5,1,5.1,3.2,5.1c1.6,0,3.2-0.7,4.8-3.4l-0.7-0.4    C-279.7,287-280.7,287.8-281.5,287.8z M-255.3,285.4c-1,1.7-1.8,2.5-2.7,2.5c-1.1,0-1.2-0.7-0.7-3.4l2.8-16h-3.9l-0.4,2.1    c-0.9-1.5-2.7-2.6-5.4-2.6c-5.8,0-11.6,5.6-11.6,13.2c0,5.1,3.2,7.9,7.3,7.9c3.1,0,5.6-1.8,7.4-5.6l-0.1,0.5    c-0.6,3.5,1,5.1,3.2,5.1c1.6,0,3.2-0.7,4.8-3.4L-255.3,285.4z M-261.2,276.4c-1.3,7.3-4.3,11.7-7.7,11.7c-2.5,0-4.2-1.9-4.2-6.1    c0-7.3,3.8-13,8.1-13c2.1,0,3.7,1.1,4.6,3L-261.2,276.4z"/>
	</g>
</g>
<g id="XMLID_3_">
	<g id="XMLID_74_">
		<path id="XMLID_76_" class="st1" d="M-357.2,257.2c-5.6,0.5-10.4,2.8-15.6,5.8c-5.3,3.1-11.1,5.6-15.9,3.3    c-1.8-0.9-3.4-2.8-4.4-5.4c0.7,2.2,2.2,4.5,4.2,5.8c1.8,1.2,4,2.2,7,2.1c0.2,0.1,4.7-0.7,7.5-1.8c3.7-1.6,11.8-6.9,18.3-8.1    c4.9-0.9,10,0.8,13.8,4.3C-345.9,258.9-351.1,256.8-357.2,257.2z M-389.1,263.3c1.5,0.2,3.1-0.1,4.4-0.5c0.3-0.1,1.7-0.7,1.8-0.8    c1.9-1,3.7-2.3,5.6-3.3s4-2.1,6.1-1.2c0.8,0.3,1.6,0.9,2.2,1.6l0.9,0.9c-0.2-0.6-1.1-1.8-1.5-2.3c-1.7-1.8-4-2.2-5.9-1.7    c-3.3,0.9-10,5.2-10.1,5.2c-1.7,0.7-3.5,0.9-5.3,0.2c-0.9-0.3-1.6-1-2-1.8c-0.2-0.3-0.3-0.5-0.4-1.8c-0.1,0.3-0.1,0.6-0.1,0.9    c0.1,0.7,0.3,1.3,0.5,1.9C-392.1,262.1-390.6,263.1-389.1,263.3z"/>
	</g>
</g>
<path d="M-378.7,270.3c0,0.5,0.1,0.9,0.1,1.5c0,7.1-3.9,15.7-12.9,15.7h-5.5l3.9-21.9c-0.9-1.2-1.7-2.1-2.2-4.1h-3.9l-0.1,1h2.7  l-4.5,25h-2.7l-0.2,1h2.7h9.5c9.4,0,17.3-6.4,17.3-15.9c0-1.3-0.2-2.4-0.5-3.4C-376.3,269.6-377.5,270-378.7,270.3z"/>
</svg>